<?xml version="1.0" encoding="utf-8" standalone="no"?>
<!DOCTYPE svg PUBLIC "-//W3C//DTD SVG 1.1//EN"
  "http://www.w3.org/Graphics/SVG/1.1/DTD/svg11.dtd">
<!-- Created with matplotlib (http://matplotlib.org/) -->
<svg height="345pt" version="1.1" viewBox="0 0 460 345" width="460pt" xmlns="http://www.w3.org/2000/svg" xmlns:xlink="http://www.w3.org/1999/xlink">
 <defs>
  <style type="text/css">
*{stroke-linecap:butt;stroke-linejoin:round;}
  </style>
 </defs>
 <g id="figure_1">
  <g id="patch_1">
   <path d="M 0 345.6 
L 460.8 345.6 
L 460.8 0 
L 0 0 
z
" style="fill:#ffffff;"/>
  </g>
  <g id="axes_1">
   <g id="patch_2">
    <path d="M 57.6 307.584 
L 414.72 307.584 
L 414.72 41.472 
L 57.6 41.472 
z
" style="fill:#ffffff;"/>
   </g>
   <g id="matplotlib.axis_1">
    <g id="xtick_1">
     <g id="line2d_1">
      <path clip-path="url(#p81a8d4cd5a)" d="M 109.905455 307.584 
L 109.905455 41.472 
" style="fill:none;stroke:#b0b0b0;stroke-linecap:square;stroke-width:0.8;"/>
     </g>
     <g id="line2d_2">
      <defs>
       <path d="M 0 0 
L 0 3.5 
" id="m416c8dd941" style="stroke:#000000;stroke-width:0.8;"/>
      </defs>
      <g>
       <use style="stroke:#000000;stroke-width:0.8;" x="109.905455" xlink:href="#m416c8dd941" y="307.584"/>
      </g>
     </g>
     <g id="text_1">
      <!-- 2 -->
      <defs>
       <path d="M 19.1875 8.296875 
L 53.609375 8.296875 
L 53.609375 0 
L 7.328125 0 
L 7.328125 8.296875 
Q 12.9375 14.109375 22.625 23.890625 
Q 32.328125 33.6875 34.8125 36.53125 
Q 39.546875 41.84375 41.421875 45.53125 
Q 43.3125 49.21875 43.3125 52.78125 
Q 43.3125 58.59375 39.234375 62.25 
Q 35.15625 65.921875 28.609375 65.921875 
Q 23.96875 65.921875 18.8125 64.3125 
Q 13.671875 62.703125 7.8125 59.421875 
L 7.8125 69.390625 
Q 13.765625 71.78125 18.9375 73 
Q 24.125 74.21875 28.421875 74.21875 
Q 39.75 74.21875 46.484375 68.546875 
Q 53.21875 62.890625 53.21875 53.421875 
Q 53.21875 48.921875 51.53125 44.890625 
Q 49.859375 40.875 45.40625 35.40625 
Q 44.1875 33.984375 37.640625 27.21875 
Q 31.109375 20.453125 19.1875 8.296875 
z
" id="DejaVuSans-32"/>
      </defs>
      <g transform="translate(106.724205 322.182437)scale(0.1 -0.1)">
       <use xlink:href="#DejaVuSans-32"/>
      </g>
     </g>
    </g>
    <g id="xtick_2">
     <g id="line2d_3">
      <path clip-path="url(#p81a8d4cd5a)" d="M 182.050909 307.584 
L 182.050909 41.472 
" style="fill:none;stroke:#b0b0b0;stroke-linecap:square;stroke-width:0.8;"/>
     </g>
     <g id="line2d_4">
      <g>
       <use style="stroke:#000000;stroke-width:0.8;" x="182.050909" xlink:href="#m416c8dd941" y="307.584"/>
      </g>
     </g>
     <g id="text_2">
      <!-- 4 -->
      <defs>
       <path d="M 37.796875 64.3125 
L 12.890625 25.390625 
L 37.796875 25.390625 
z
M 35.203125 72.90625 
L 47.609375 72.90625 
L 47.609375 25.390625 
L 58.015625 25.390625 
L 58.015625 17.1875 
L 47.609375 17.1875 
L 47.609375 0 
L 37.796875 0 
L 37.796875 17.1875 
L 4.890625 17.1875 
L 4.890625 26.703125 
z
" id="DejaVuSans-34"/>
      </defs>
      <g transform="translate(178.869659 322.182437)scale(0.1 -0.1)">
       <use xlink:href="#DejaVuSans-34"/>
      </g>
     </g>
    </g>
    <g id="xtick_3">
     <g id="line2d_5">
      <path clip-path="url(#p81a8d4cd5a)" d="M 254.196364 307.584 
L 254.196364 41.472 
" style="fill:none;stroke:#b0b0b0;stroke-linecap:square;stroke-width:0.8;"/>
     </g>
     <g id="line2d_6">
      <g>
       <use style="stroke:#000000;stroke-width:0.8;" x="254.196364" xlink:href="#m416c8dd941" y="307.584"/>
      </g>
     </g>
     <g id="text_3">
      <!-- 6 -->
      <defs>
       <path d="M 33.015625 40.375 
Q 26.375 40.375 22.484375 35.828125 
Q 18.609375 31.296875 18.609375 23.390625 
Q 18.609375 15.53125 22.484375 10.953125 
Q 26.375 6.390625 33.015625 6.390625 
Q 39.65625 6.390625 43.53125 10.953125 
Q 47.40625 15.53125 47.40625 23.390625 
Q 47.40625 31.296875 43.53125 35.828125 
Q 39.65625 40.375 33.015625 40.375 
z
M 52.59375 71.296875 
L 52.59375 62.3125 
Q 48.875 64.0625 45.09375 64.984375 
Q 41.3125 65.921875 37.59375 65.921875 
Q 27.828125 65.921875 22.671875 59.328125 
Q 17.53125 52.734375 16.796875 39.40625 
Q 19.671875 43.65625 24.015625 45.921875 
Q 28.375 48.1875 33.59375 48.1875 
Q 44.578125 48.1875 50.953125 41.515625 
Q 57.328125 34.859375 57.328125 23.390625 
Q 57.328125 12.15625 50.6875 5.359375 
Q 44.046875 -1.421875 33.015625 -1.421875 
Q 20.359375 -1.421875 13.671875 8.265625 
Q 6.984375 17.96875 6.984375 36.375 
Q 6.984375 53.65625 15.1875 63.9375 
Q 23.390625 74.21875 37.203125 74.21875 
Q 40.921875 74.21875 44.703125 73.484375 
Q 48.484375 72.75 52.59375 71.296875 
z
" id="DejaVuSans-36"/>
      </defs>
      <g transform="translate(251.015114 322.182437)scale(0.1 -0.1)">
       <use xlink:href="#DejaVuSans-36"/>
      </g>
     </g>
    </g>
    <g id="xtick_4">
     <g id="line2d_7">
      <path clip-path="url(#p81a8d4cd5a)" d="M 326.341818 307.584 
L 326.341818 41.472 
" style="fill:none;stroke:#b0b0b0;stroke-linecap:square;stroke-width:0.8;"/>
     </g>
     <g id="line2d_8">
      <g>
       <use style="stroke:#000000;stroke-width:0.8;" x="326.341818" xlink:href="#m416c8dd941" y="307.584"/>
      </g>
     </g>
     <g id="text_4">
      <!-- 8 -->
      <defs>
       <path d="M 31.78125 34.625 
Q 24.75 34.625 20.71875 30.859375 
Q 16.703125 27.09375 16.703125 20.515625 
Q 16.703125 13.921875 20.71875 10.15625 
Q 24.75 6.390625 31.78125 6.390625 
Q 38.8125 6.390625 42.859375 10.171875 
Q 46.921875 13.96875 46.921875 20.515625 
Q 46.921875 27.09375 42.890625 30.859375 
Q 38.875 34.625 31.78125 34.625 
z
M 21.921875 38.8125 
Q 15.578125 40.375 12.03125 44.71875 
Q 8.5 49.078125 8.5 55.328125 
Q 8.5 64.0625 14.71875 69.140625 
Q 20.953125 74.21875 31.78125 74.21875 
Q 42.671875 74.21875 48.875 69.140625 
Q 55.078125 64.0625 55.078125 55.328125 
Q 55.078125 49.078125 51.53125 44.71875 
Q 48 40.375 41.703125 38.8125 
Q 48.828125 37.15625 52.796875 32.3125 
Q 56.78125 27.484375 56.78125 20.515625 
Q 56.78125 9.90625 50.3125 4.234375 
Q 43.84375 -1.421875 31.78125 -1.421875 
Q 19.734375 -1.421875 13.25 4.234375 
Q 6.78125 9.90625 6.78125 20.515625 
Q 6.78125 27.484375 10.78125 32.3125 
Q 14.796875 37.15625 21.921875 38.8125 
z
M 18.3125 54.390625 
Q 18.3125 48.734375 21.84375 45.5625 
Q 25.390625 42.390625 31.78125 42.390625 
Q 38.140625 42.390625 41.71875 45.5625 
Q 45.3125 48.734375 45.3125 54.390625 
Q 45.3125 60.0625 41.71875 63.234375 
Q 38.140625 66.40625 31.78125 66.40625 
Q 25.390625 66.40625 21.84375 63.234375 
Q 18.3125 60.0625 18.3125 54.390625 
z
" id="DejaVuSans-38"/>
      </defs>
      <g transform="translate(323.160568 322.182437)scale(0.1 -0.1)">
       <use xlink:href="#DejaVuSans-38"/>
      </g>
     </g>
    </g>
    <g id="xtick_5">
     <g id="line2d_9">
      <path clip-path="url(#p81a8d4cd5a)" d="M 398.487273 307.584 
L 398.487273 41.472 
" style="fill:none;stroke:#b0b0b0;stroke-linecap:square;stroke-width:0.8;"/>
     </g>
     <g id="line2d_10">
      <g>
       <use style="stroke:#000000;stroke-width:0.8;" x="398.487273" xlink:href="#m416c8dd941" y="307.584"/>
      </g>
     </g>
     <g id="text_5">
      <!-- 10 -->
      <defs>
       <path d="M 12.40625 8.296875 
L 28.515625 8.296875 
L 28.515625 63.921875 
L 10.984375 60.40625 
L 10.984375 69.390625 
L 28.421875 72.90625 
L 38.28125 72.90625 
L 38.28125 8.296875 
L 54.390625 8.296875 
L 54.390625 0 
L 12.40625 0 
z
" id="DejaVuSans-31"/>
       <path d="M 31.78125 66.40625 
Q 24.171875 66.40625 20.328125 58.90625 
Q 16.5 51.421875 16.5 36.375 
Q 16.5 21.390625 20.328125 13.890625 
Q 24.171875 6.390625 31.78125 6.390625 
Q 39.453125 6.390625 43.28125 13.890625 
Q 47.125 21.390625 47.125 36.375 
Q 47.125 51.421875 43.28125 58.90625 
Q 39.453125 66.40625 31.78125 66.40625 
z
M 31.78125 74.21875 
Q 44.046875 74.21875 50.515625 64.515625 
Q 56.984375 54.828125 56.984375 36.375 
Q 56.984375 17.96875 50.515625 8.265625 
Q 44.046875 -1.421875 31.78125 -1.421875 
Q 19.53125 -1.421875 13.0625 8.265625 
Q 6.59375 17.96875 6.59375 36.375 
Q 6.59375 54.828125 13.0625 64.515625 
Q 19.53125 74.21875 31.78125 74.21875 
z
" id="DejaVuSans-30"/>
      </defs>
      <g transform="translate(392.124773 322.182437)scale(0.1 -0.1)">
       <use xlink:href="#DejaVuSans-31"/>
       <use x="63.623047" xlink:href="#DejaVuSans-30"/>
      </g>
     </g>
    </g>
    <g id="text_6">
     <!-- Velocity -->
     <defs>
      <path d="M 28.609375 0 
L 0.78125 72.90625 
L 11.078125 72.90625 
L 34.1875 11.53125 
L 57.328125 72.90625 
L 67.578125 72.90625 
L 39.796875 0 
z
" id="DejaVuSans-56"/>
      <path d="M 56.203125 29.59375 
L 56.203125 25.203125 
L 14.890625 25.203125 
Q 15.484375 15.921875 20.484375 11.0625 
Q 25.484375 6.203125 34.421875 6.203125 
Q 39.59375 6.203125 44.453125 7.46875 
Q 49.3125 8.734375 54.109375 11.28125 
L 54.109375 2.78125 
Q 49.265625 0.734375 44.1875 -0.34375 
Q 39.109375 -1.421875 33.890625 -1.421875 
Q 20.796875 -1.421875 13.15625 6.1875 
Q 5.515625 13.8125 5.515625 26.8125 
Q 5.515625 40.234375 12.765625 48.109375 
Q 20.015625 56 32.328125 56 
Q 43.359375 56 49.78125 48.890625 
Q 56.203125 41.796875 56.203125 29.59375 
z
M 47.21875 32.234375 
Q 47.125 39.59375 43.09375 43.984375 
Q 39.0625 48.390625 32.421875 48.390625 
Q 24.90625 48.390625 20.390625 44.140625 
Q 15.875 39.890625 15.1875 32.171875 
z
" id="DejaVuSans-65"/>
      <path d="M 9.421875 75.984375 
L 18.40625 75.984375 
L 18.40625 0 
L 9.421875 0 
z
" id="DejaVuSans-6c"/>
      <path d="M 30.609375 48.390625 
Q 23.390625 48.390625 19.1875 42.75 
Q 14.984375 37.109375 14.984375 27.296875 
Q 14.984375 17.484375 19.15625 11.84375 
Q 23.34375 6.203125 30.609375 6.203125 
Q 37.796875 6.203125 41.984375 11.859375 
Q 46.1875 17.53125 46.1875 27.296875 
Q 46.1875 37.015625 41.984375 42.703125 
Q 37.796875 48.390625 30.609375 48.390625 
z
M 30.609375 56 
Q 42.328125 56 49.015625 48.375 
Q 55.71875 40.765625 55.71875 27.296875 
Q 55.71875 13.875 49.015625 6.21875 
Q 42.328125 -1.421875 30.609375 -1.421875 
Q 18.84375 -1.421875 12.171875 6.21875 
Q 5.515625 13.875 5.515625 27.296875 
Q 5.515625 40.765625 12.171875 48.375 
Q 18.84375 56 30.609375 56 
z
" id="DejaVuSans-6f"/>
      <path d="M 48.78125 52.59375 
L 48.78125 44.1875 
Q 44.96875 46.296875 41.140625 47.34375 
Q 37.3125 48.390625 33.40625 48.390625 
Q 24.65625 48.390625 19.8125 42.84375 
Q 14.984375 37.3125 14.984375 27.296875 
Q 14.984375 17.28125 19.8125 11.734375 
Q 24.65625 6.203125 33.40625 6.203125 
Q 37.3125 6.203125 41.140625 7.25 
Q 44.96875 8.296875 48.78125 10.40625 
L 48.78125 2.09375 
Q 45.015625 0.34375 40.984375 -0.53125 
Q 36.96875 -1.421875 32.421875 -1.421875 
Q 20.0625 -1.421875 12.78125 6.34375 
Q 5.515625 14.109375 5.515625 27.296875 
Q 5.515625 40.671875 12.859375 48.328125 
Q 20.21875 56 33.015625 56 
Q 37.15625 56 41.109375 55.140625 
Q 45.0625 54.296875 48.78125 52.59375 
z
" id="DejaVuSans-63"/>
      <path d="M 9.421875 54.6875 
L 18.40625 54.6875 
L 18.40625 0 
L 9.421875 0 
z
M 9.421875 75.984375 
L 18.40625 75.984375 
L 18.40625 64.59375 
L 9.421875 64.59375 
z
" id="DejaVuSans-69"/>
      <path d="M 18.3125 70.21875 
L 18.3125 54.6875 
L 36.8125 54.6875 
L 36.8125 47.703125 
L 18.3125 47.703125 
L 18.3125 18.015625 
Q 18.3125 11.328125 20.140625 9.421875 
Q 21.96875 7.515625 27.59375 7.515625 
L 36.8125 7.515625 
L 36.8125 0 
L 27.59375 0 
Q 17.1875 0 13.234375 3.875 
Q 9.28125 7.765625 9.28125 18.015625 
L 9.28125 47.703125 
L 2.6875 47.703125 
L 2.6875 54.6875 
L 9.28125 54.6875 
L 9.28125 70.21875 
z
" id="DejaVuSans-74"/>
      <path d="M 32.171875 -5.078125 
Q 28.375 -14.84375 24.75 -17.8125 
Q 21.140625 -20.796875 15.09375 -20.796875 
L 7.90625 -20.796875 
L 7.90625 -13.28125 
L 13.1875 -13.28125 
Q 16.890625 -13.28125 18.9375 -11.515625 
Q 21 -9.765625 23.484375 -3.21875 
L 25.09375 0.875 
L 2.984375 54.6875 
L 12.5 54.6875 
L 29.59375 11.921875 
L 46.6875 54.6875 
L 56.203125 54.6875 
z
" id="DejaVuSans-79"/>
     </defs>
     <g transform="translate(216.162344 335.860562)scale(0.1 -0.1)">
      <use xlink:href="#DejaVuSans-56"/>
      <use x="68.298828" xlink:href="#DejaVuSans-65"/>
      <use x="129.822266" xlink:href="#DejaVuSans-6c"/>
      <use x="157.605469" xlink:href="#DejaVuSans-6f"/>
      <use x="218.787109" xlink:href="#DejaVuSans-63"/>
      <use x="273.767578" xlink:href="#DejaVuSans-69"/>
      <use x="301.550781" xlink:href="#DejaVuSans-74"/>
      <use x="340.759766" xlink:href="#DejaVuSans-79"/>
     </g>
    </g>
   </g>
   <g id="matplotlib.axis_2">
    <g id="ytick_1">
     <g id="line2d_11">
      <path clip-path="url(#p81a8d4cd5a)" d="M 57.6 303.836942 
L 414.72 303.836942 
" style="fill:none;stroke:#b0b0b0;stroke-linecap:square;stroke-width:0.8;"/>
     </g>
     <g id="line2d_12">
      <defs>
       <path d="M 0 0 
L -3.5 0 
" id="m60a8fccc56" style="stroke:#000000;stroke-width:0.8;"/>
      </defs>
      <g>
       <use style="stroke:#000000;stroke-width:0.8;" x="57.6" xlink:href="#m60a8fccc56" y="303.836942"/>
      </g>
     </g>
     <g id="text_7">
      <!-- −0.06 -->
      <defs>
       <path d="M 10.59375 35.5 
L 73.1875 35.5 
L 73.1875 27.203125 
L 10.59375 27.203125 
z
" id="DejaVuSans-2212"/>
       <path d="M 10.6875 12.40625 
L 21 12.40625 
L 21 0 
L 10.6875 0 
z
" id="DejaVuSans-2e"/>
      </defs>
      <g transform="translate(19.954687 307.63616)scale(0.1 -0.1)">
       <use xlink:href="#DejaVuSans-2212"/>
       <use x="83.789062" xlink:href="#DejaVuSans-30"/>
       <use x="147.412109" xlink:href="#DejaVuSans-2e"/>
       <use x="179.199219" xlink:href="#DejaVuSans-30"/>
       <use x="242.822266" xlink:href="#DejaVuSans-36"/>
      </g>
     </g>
    </g>
    <g id="ytick_2">
     <g id="line2d_13">
      <path clip-path="url(#p81a8d4cd5a)" d="M 57.6 262.158835 
L 414.72 262.158835 
" style="fill:none;stroke:#b0b0b0;stroke-linecap:square;stroke-width:0.8;"/>
     </g>
     <g id="line2d_14">
      <g>
       <use style="stroke:#000000;stroke-width:0.8;" x="57.6" xlink:href="#m60a8fccc56" y="262.158835"/>
      </g>
     </g>
     <g id="text_8">
      <!-- −0.05 -->
      <defs>
       <path d="M 10.796875 72.90625 
L 49.515625 72.90625 
L 49.515625 64.59375 
L 19.828125 64.59375 
L 19.828125 46.734375 
Q 21.96875 47.46875 24.109375 47.828125 
Q 26.265625 48.1875 28.421875 48.1875 
Q 40.625 48.1875 47.75 41.5 
Q 54.890625 34.8125 54.890625 23.390625 
Q 54.890625 11.625 47.5625 5.09375 
Q 40.234375 -1.421875 26.90625 -1.421875 
Q 22.3125 -1.421875 17.546875 -0.640625 
Q 12.796875 0.140625 7.71875 1.703125 
L 7.71875 11.625 
Q 12.109375 9.234375 16.796875 8.0625 
Q 21.484375 6.890625 26.703125 6.890625 
Q 35.15625 6.890625 40.078125 11.328125 
Q 45.015625 15.765625 45.015625 23.390625 
Q 45.015625 31 40.078125 35.4375 
Q 35.15625 39.890625 26.703125 39.890625 
Q 22.75 39.890625 18.8125 39.015625 
Q 14.890625 38.140625 10.796875 36.28125 
z
" id="DejaVuSans-35"/>
      </defs>
      <g transform="translate(19.954687 265.958054)scale(0.1 -0.1)">
       <use xlink:href="#DejaVuSans-2212"/>
       <use x="83.789062" xlink:href="#DejaVuSans-30"/>
       <use x="147.412109" xlink:href="#DejaVuSans-2e"/>
       <use x="179.199219" xlink:href="#DejaVuSans-30"/>
       <use x="242.822266" xlink:href="#DejaVuSans-35"/>
      </g>
     </g>
    </g>
    <g id="ytick_3">
     <g id="line2d_15">
      <path clip-path="url(#p81a8d4cd5a)" d="M 57.6 220.480729 
L 414.72 220.480729 
" style="fill:none;stroke:#b0b0b0;stroke-linecap:square;stroke-width:0.8;"/>
     </g>
     <g id="line2d_16">
      <g>
       <use style="stroke:#000000;stroke-width:0.8;" x="57.6" xlink:href="#m60a8fccc56" y="220.480729"/>
      </g>
     </g>
     <g id="text_9">
      <!-- −0.04 -->
      <g transform="translate(19.954687 224.279948)scale(0.1 -0.1)">
       <use xlink:href="#DejaVuSans-2212"/>
       <use x="83.789062" xlink:href="#DejaVuSans-30"/>
       <use x="147.412109" xlink:href="#DejaVuSans-2e"/>
       <use x="179.199219" xlink:href="#DejaVuSans-30"/>
       <use x="242.822266" xlink:href="#DejaVuSans-34"/>
      </g>
     </g>
    </g>
    <g id="ytick_4">
     <g id="line2d_17">
      <path clip-path="url(#p81a8d4cd5a)" d="M 57.6 178.802623 
L 414.72 178.802623 
" style="fill:none;stroke:#b0b0b0;stroke-linecap:square;stroke-width:0.8;"/>
     </g>
     <g id="line2d_18">
      <g>
       <use style="stroke:#000000;stroke-width:0.8;" x="57.6" xlink:href="#m60a8fccc56" y="178.802623"/>
      </g>
     </g>
     <g id="text_10">
      <!-- −0.03 -->
      <defs>
       <path d="M 40.578125 39.3125 
Q 47.65625 37.796875 51.625 33 
Q 55.609375 28.21875 55.609375 21.1875 
Q 55.609375 10.40625 48.1875 4.484375 
Q 40.765625 -1.421875 27.09375 -1.421875 
Q 22.515625 -1.421875 17.65625 -0.515625 
Q 12.796875 0.390625 7.625 2.203125 
L 7.625 11.71875 
Q 11.71875 9.328125 16.59375 8.109375 
Q 21.484375 6.890625 26.8125 6.890625 
Q 36.078125 6.890625 40.9375 10.546875 
Q 45.796875 14.203125 45.796875 21.1875 
Q 45.796875 27.640625 41.28125 31.265625 
Q 36.765625 34.90625 28.71875 34.90625 
L 20.21875 34.90625 
L 20.21875 43.015625 
L 29.109375 43.015625 
Q 36.375 43.015625 40.234375 45.921875 
Q 44.09375 48.828125 44.09375 54.296875 
Q 44.09375 59.90625 40.109375 62.90625 
Q 36.140625 65.921875 28.71875 65.921875 
Q 24.65625 65.921875 20.015625 65.03125 
Q 15.375 64.15625 9.8125 62.3125 
L 9.8125 71.09375 
Q 15.4375 72.65625 20.34375 73.4375 
Q 25.25 74.21875 29.59375 74.21875 
Q 40.828125 74.21875 47.359375 69.109375 
Q 53.90625 64.015625 53.90625 55.328125 
Q 53.90625 49.265625 50.4375 45.09375 
Q 46.96875 40.921875 40.578125 39.3125 
z
" id="DejaVuSans-33"/>
      </defs>
      <g transform="translate(19.954687 182.601842)scale(0.1 -0.1)">
       <use xlink:href="#DejaVuSans-2212"/>
       <use x="83.789062" xlink:href="#DejaVuSans-30"/>
       <use x="147.412109" xlink:href="#DejaVuSans-2e"/>
       <use x="179.199219" xlink:href="#DejaVuSans-30"/>
       <use x="242.822266" xlink:href="#DejaVuSans-33"/>
      </g>
     </g>
    </g>
    <g id="ytick_5">
     <g id="line2d_19">
      <path clip-path="url(#p81a8d4cd5a)" d="M 57.6 137.124517 
L 414.72 137.124517 
" style="fill:none;stroke:#b0b0b0;stroke-linecap:square;stroke-width:0.8;"/>
     </g>
     <g id="line2d_20">
      <g>
       <use style="stroke:#000000;stroke-width:0.8;" x="57.6" xlink:href="#m60a8fccc56" y="137.124517"/>
      </g>
     </g>
     <g id="text_11">
      <!-- −0.02 -->
      <g transform="translate(19.954687 140.923736)scale(0.1 -0.1)">
       <use xlink:href="#DejaVuSans-2212"/>
       <use x="83.789062" xlink:href="#DejaVuSans-30"/>
       <use x="147.412109" xlink:href="#DejaVuSans-2e"/>
       <use x="179.199219" xlink:href="#DejaVuSans-30"/>
       <use x="242.822266" xlink:href="#DejaVuSans-32"/>
      </g>
     </g>
    </g>
    <g id="ytick_6">
     <g id="line2d_21">
      <path clip-path="url(#p81a8d4cd5a)" d="M 57.6 95.446411 
L 414.72 95.446411 
" style="fill:none;stroke:#b0b0b0;stroke-linecap:square;stroke-width:0.8;"/>
     </g>
     <g id="line2d_22">
      <g>
       <use style="stroke:#000000;stroke-width:0.8;" x="57.6" xlink:href="#m60a8fccc56" y="95.446411"/>
      </g>
     </g>
     <g id="text_12">
      <!-- −0.01 -->
      <g transform="translate(19.954687 99.24563)scale(0.1 -0.1)">
       <use xlink:href="#DejaVuSans-2212"/>
       <use x="83.789062" xlink:href="#DejaVuSans-30"/>
       <use x="147.412109" xlink:href="#DejaVuSans-2e"/>
       <use x="179.199219" xlink:href="#DejaVuSans-30"/>
       <use x="242.822266" xlink:href="#DejaVuSans-31"/>
      </g>
     </g>
    </g>
    <g id="ytick_7">
     <g id="line2d_23">
      <path clip-path="url(#p81a8d4cd5a)" d="M 57.6 53.768305 
L 414.72 53.768305 
" style="fill:none;stroke:#b0b0b0;stroke-linecap:square;stroke-width:0.8;"/>
     </g>
     <g id="line2d_24">
      <g>
       <use style="stroke:#000000;stroke-width:0.8;" x="57.6" xlink:href="#m60a8fccc56" y="53.768305"/>
      </g>
     </g>
     <g id="text_13">
      <!-- 0.00 -->
      <g transform="translate(28.334375 57.567524)scale(0.1 -0.1)">
       <use xlink:href="#DejaVuSans-30"/>
       <use x="63.623047" xlink:href="#DejaVuSans-2e"/>
       <use x="95.410156" xlink:href="#DejaVuSans-30"/>
       <use x="159.033203" xlink:href="#DejaVuSans-30"/>
      </g>
     </g>
    </g>
    <g id="text_14">
     <!-- Friction force -->
     <defs>
      <path d="M 9.8125 72.90625 
L 51.703125 72.90625 
L 51.703125 64.59375 
L 19.671875 64.59375 
L 19.671875 43.109375 
L 48.578125 43.109375 
L 48.578125 34.8125 
L 19.671875 34.8125 
L 19.671875 0 
L 9.8125 0 
z
" id="DejaVuSans-46"/>
      <path d="M 41.109375 46.296875 
Q 39.59375 47.171875 37.8125 47.578125 
Q 36.03125 48 33.890625 48 
Q 26.265625 48 22.1875 43.046875 
Q 18.109375 38.09375 18.109375 28.8125 
L 18.109375 0 
L 9.078125 0 
L 9.078125 54.6875 
L 18.109375 54.6875 
L 18.109375 46.1875 
Q 20.953125 51.171875 25.484375 53.578125 
Q 30.03125 56 36.53125 56 
Q 37.453125 56 38.578125 55.875 
Q 39.703125 55.765625 41.0625 55.515625 
z
" id="DejaVuSans-72"/>
      <path d="M 54.890625 33.015625 
L 54.890625 0 
L 45.90625 0 
L 45.90625 32.71875 
Q 45.90625 40.484375 42.875 44.328125 
Q 39.84375 48.1875 33.796875 48.1875 
Q 26.515625 48.1875 22.3125 43.546875 
Q 18.109375 38.921875 18.109375 30.90625 
L 18.109375 0 
L 9.078125 0 
L 9.078125 54.6875 
L 18.109375 54.6875 
L 18.109375 46.1875 
Q 21.34375 51.125 25.703125 53.5625 
Q 30.078125 56 35.796875 56 
Q 45.21875 56 50.046875 50.171875 
Q 54.890625 44.34375 54.890625 33.015625 
z
" id="DejaVuSans-6e"/>
      <path id="DejaVuSans-20"/>
      <path d="M 37.109375 75.984375 
L 37.109375 68.5 
L 28.515625 68.5 
Q 23.6875 68.5 21.796875 66.546875 
Q 19.921875 64.59375 19.921875 59.515625 
L 19.921875 54.6875 
L 34.71875 54.6875 
L 34.71875 47.703125 
L 19.921875 47.703125 
L 19.921875 0 
L 10.890625 0 
L 10.890625 47.703125 
L 2.296875 47.703125 
L 2.296875 54.6875 
L 10.890625 54.6875 
L 10.890625 58.5 
Q 10.890625 67.625 15.140625 71.796875 
Q 19.390625 75.984375 28.609375 75.984375 
z
" id="DejaVuSans-66"/>
     </defs>
     <g transform="translate(13.875 207.457687)rotate(-90)scale(0.1 -0.1)">
      <use xlink:href="#DejaVuSans-46"/>
      <use x="57.410156" xlink:href="#DejaVuSans-72"/>
      <use x="98.523438" xlink:href="#DejaVuSans-69"/>
      <use x="126.306641" xlink:href="#DejaVuSans-63"/>
      <use x="181.287109" xlink:href="#DejaVuSans-74"/>
      <use x="220.496094" xlink:href="#DejaVuSans-69"/>
      <use x="248.279297" xlink:href="#DejaVuSans-6f"/>
      <use x="309.460938" xlink:href="#DejaVuSans-6e"/>
      <use x="372.839844" xlink:href="#DejaVuSans-20"/>
      <use x="404.626953" xlink:href="#DejaVuSans-66"/>
      <use x="439.832031" xlink:href="#DejaVuSans-6f"/>
      <use x="501.013672" xlink:href="#DejaVuSans-72"/>
      <use x="542.095703" xlink:href="#DejaVuSans-63"/>
      <use x="597.076172" xlink:href="#DejaVuSans-65"/>
     </g>
    </g>
   </g>
   <g id="line2d_25">
    <defs>
     <path d="M -3 3 
L 3 -3 
M -3 -3 
L 3 3 
" id="mcf3d12abbc" style="stroke:#008000;"/>
    </defs>
    <g clip-path="url(#p81a8d4cd5a)">
     <use style="fill:#008000;stroke:#008000;" x="398.487273" xlink:href="#mcf3d12abbc" y="75.663878"/>
     <use style="fill:#008000;stroke:#008000;" x="362.414545" xlink:href="#mcf3d12abbc" y="99.956529"/>
     <use style="fill:#008000;stroke:#008000;" x="326.341818" xlink:href="#mcf3d12abbc" y="124.691451"/>
     <use style="fill:#008000;stroke:#008000;" x="290.269091" xlink:href="#mcf3d12abbc" y="148.954091"/>
     <use style="fill:#008000;stroke:#008000;" x="254.196364" xlink:href="#mcf3d12abbc" y="173.81314"/>
     <use style="fill:#008000;stroke:#008000;" x="218.123636" xlink:href="#mcf3d12abbc" y="198.44186"/>
     <use style="fill:#008000;stroke:#008000;" x="182.050909" xlink:href="#mcf3d12abbc" y="222.068565"/>
     <use style="fill:#008000;stroke:#008000;" x="145.978182" xlink:href="#mcf3d12abbc" y="246.348243"/>
     <use style="fill:#008000;stroke:#008000;" x="109.905455" xlink:href="#mcf3d12abbc" y="270.90781"/>
     <use style="fill:#008000;stroke:#008000;" x="73.832727" xlink:href="#mcf3d12abbc" y="295.488"/>
    </g>
   </g>
   <g id="line2d_26">
    <defs>
     <path d="M -3 3 
L 3 -3 
M -3 -3 
L 3 3 
" id="m0917052d37" style="stroke:#ff0000;"/>
    </defs>
    <g clip-path="url(#p81a8d4cd5a)">
     <use style="fill:#ff0000;stroke:#ff0000;" x="398.487273" xlink:href="#m0917052d37" y="53.568"/>
     <use style="fill:#ff0000;stroke:#ff0000;" x="362.414545" xlink:href="#m0917052d37" y="53.753107"/>
     <use style="fill:#ff0000;stroke:#ff0000;" x="326.341818" xlink:href="#m0917052d37" y="53.642604"/>
     <use style="fill:#ff0000;stroke:#ff0000;" x="290.269091" xlink:href="#m0917052d37" y="53.841448"/>
     <use style="fill:#ff0000;stroke:#ff0000;" x="254.196364" xlink:href="#m0917052d37" y="53.811967"/>
     <use style="fill:#ff0000;stroke:#ff0000;" x="218.123636" xlink:href="#m0917052d37" y="53.599789"/>
     <use style="fill:#ff0000;stroke:#ff0000;" x="182.050909" xlink:href="#m0917052d37" y="53.938198"/>
     <use style="fill:#ff0000;stroke:#ff0000;" x="145.978182" xlink:href="#m0917052d37" y="54.078864"/>
     <use style="fill:#ff0000;stroke:#ff0000;" x="109.905455" xlink:href="#m0917052d37" y="53.842992"/>
     <use style="fill:#ff0000;stroke:#ff0000;" x="73.832727" xlink:href="#m0917052d37" y="53.899681"/>
    </g>
   </g>
   <g id="line2d_27">
    <path clip-path="url(#p81a8d4cd5a)" d="M 398.487273 75.797025 
L 395.207934 78.015941 
L 391.928595 80.234857 
L 388.649256 82.453772 
L 385.369917 84.672688 
L 382.090579 86.891604 
L 378.81124 89.11052 
L 375.531901 91.329436 
L 372.252562 93.548351 
L 368.973223 95.767267 
L 365.693884 97.986183 
L 362.414545 100.205099 
L 359.135207 102.424015 
L 355.855868 104.64293 
L 352.576529 106.861846 
L 349.29719 109.080762 
L 346.017851 111.299678 
L 342.738512 113.518593 
L 339.459174 115.737509 
L 336.179835 117.956425 
L 332.900496 120.175341 
L 329.621157 122.394257 
L 326.341818 124.613172 
L 323.062479 126.832088 
L 319.78314 129.051004 
L 316.503802 131.26992 
L 313.224463 133.488836 
L 309.945124 135.707751 
L 306.665785 137.926667 
L 303.386446 140.145583 
L 300.107107 142.364499 
L 296.827769 144.583415 
L 293.54843 146.80233 
L 290.269091 149.021246 
L 286.989752 151.240162 
L 283.710413 153.459078 
L 280.431074 155.677994 
L 277.151736 157.896909 
L 273.872397 160.115825 
L 270.593058 162.334741 
L 267.313719 164.553657 
L 264.03438 166.772573 
L 260.755041 168.991488 
L 257.475702 171.210404 
L 254.196364 173.42932 
L 250.917025 175.648236 
L 247.637686 177.867151 
L 244.358347 180.086067 
L 241.079008 182.304983 
L 237.799669 184.523899 
L 234.520331 186.742815 
L 231.240992 188.96173 
L 227.961653 191.180646 
L 224.682314 193.399562 
L 221.402975 195.618478 
L 218.123636 197.837394 
L 214.844298 200.056309 
L 211.564959 202.275225 
L 208.28562 204.494141 
L 205.006281 206.713057 
L 201.726942 208.931973 
L 198.447603 211.150888 
L 195.168264 213.369804 
L 191.888926 215.58872 
L 188.609587 217.807636 
L 185.330248 220.026552 
L 182.050909 222.245467 
L 178.77157 224.464383 
L 175.492231 226.683299 
L 172.212893 228.902215 
L 168.933554 231.121131 
L 165.654215 233.340046 
L 162.374876 235.558962 
L 159.095537 237.777878 
L 155.816198 239.996794 
L 152.53686 242.21571 
L 149.257521 244.434625 
L 145.978182 246.653541 
L 142.698843 248.872457 
L 139.419504 251.091373 
L 136.140165 253.310288 
L 132.860826 255.529204 
L 129.581488 257.74812 
L 126.302149 259.967036 
L 123.02281 262.185952 
L 119.743471 264.404867 
L 116.464132 266.623783 
L 113.184793 268.842699 
L 109.905455 271.061615 
L 106.626116 273.280531 
L 103.346777 275.499446 
L 100.067438 277.718362 
L 96.788099 279.937278 
L 93.50876 282.156194 
L 90.229421 284.37511 
L 86.950083 286.594025 
L 83.670744 288.812941 
L 80.391405 291.031857 
L 77.112066 293.250773 
L 73.832727 295.469689 
" style="fill:none;stroke:#000000;stroke-linecap:square;stroke-width:1.5;"/>
   </g>
   <g id="line2d_28">
    <path clip-path="url(#p81a8d4cd5a)" d="M 398.487273 53.637473 
L 395.207934 53.64071 
L 391.928595 53.643946 
L 388.649256 53.647182 
L 385.369917 53.650418 
L 382.090579 53.653654 
L 378.81124 53.656891 
L 375.531901 53.660127 
L 372.252562 53.663363 
L 368.973223 53.666599 
L 365.693884 53.669835 
L 362.414545 53.673072 
L 359.135207 53.676308 
L 355.855868 53.679544 
L 352.576529 53.68278 
L 349.29719 53.686016 
L 346.017851 53.689253 
L 342.738512 53.692489 
L 339.459174 53.695725 
L 336.179835 53.698961 
L 332.900496 53.702197 
L 329.621157 53.705434 
L 326.341818 53.70867 
L 323.062479 53.711906 
L 319.78314 53.715142 
L 316.503802 53.718378 
L 313.224463 53.721614 
L 309.945124 53.724851 
L 306.665785 53.728087 
L 303.386446 53.731323 
L 300.107107 53.734559 
L 296.827769 53.737795 
L 293.54843 53.741032 
L 290.269091 53.744268 
L 286.989752 53.747504 
L 283.710413 53.75074 
L 280.431074 53.753976 
L 277.151736 53.757213 
L 273.872397 53.760449 
L 270.593058 53.763685 
L 267.313719 53.766921 
L 264.03438 53.770157 
L 260.755041 53.773394 
L 257.475702 53.77663 
L 254.196364 53.779866 
L 250.917025 53.783102 
L 247.637686 53.786338 
L 244.358347 53.789575 
L 241.079008 53.792811 
L 237.799669 53.796047 
L 234.520331 53.799283 
L 231.240992 53.802519 
L 227.961653 53.805756 
L 224.682314 53.808992 
L 221.402975 53.812228 
L 218.123636 53.815464 
L 214.844298 53.8187 
L 211.564959 53.821936 
L 208.28562 53.825173 
L 205.006281 53.828409 
L 201.726942 53.831645 
L 198.447603 53.834881 
L 195.168264 53.838117 
L 191.888926 53.841354 
L 188.609587 53.84459 
L 185.330248 53.847826 
L 182.050909 53.851062 
L 178.77157 53.854298 
L 175.492231 53.857535 
L 172.212893 53.860771 
L 168.933554 53.864007 
L 165.654215 53.867243 
L 162.374876 53.870479 
L 159.095537 53.873716 
L 155.816198 53.876952 
L 152.53686 53.880188 
L 149.257521 53.883424 
L 145.978182 53.88666 
L 142.698843 53.889897 
L 139.419504 53.893133 
L 136.140165 53.896369 
L 132.860826 53.899605 
L 129.581488 53.902841 
L 126.302149 53.906078 
L 123.02281 53.909314 
L 119.743471 53.91255 
L 116.464132 53.915786 
L 113.184793 53.919022 
L 109.905455 53.922259 
L 106.626116 53.925495 
L 103.346777 53.928731 
L 100.067438 53.931967 
L 96.788099 53.935203 
L 93.50876 53.938439 
L 90.229421 53.941676 
L 86.950083 53.944912 
L 83.670744 53.948148 
L 80.391405 53.951384 
L 77.112066 53.95462 
L 73.832727 53.957857 
" style="fill:none;stroke:#0000ff;stroke-linecap:square;stroke-width:1.5;"/>
   </g>
   <g id="patch_3">
    <path d="M 57.6 307.584 
L 57.6 41.472 
" style="fill:none;stroke:#000000;stroke-linecap:square;stroke-linejoin:miter;stroke-width:0.8;"/>
   </g>
   <g id="patch_4">
    <path d="M 414.72 307.584 
L 414.72 41.472 
" style="fill:none;stroke:#000000;stroke-linecap:square;stroke-linejoin:miter;stroke-width:0.8;"/>
   </g>
   <g id="patch_5">
    <path d="M 57.6 307.584 
L 414.72 307.584 
" style="fill:none;stroke:#000000;stroke-linecap:square;stroke-linejoin:miter;stroke-width:0.8;"/>
   </g>
   <g id="patch_6">
    <path d="M 57.6 41.472 
L 414.72 41.472 
" style="fill:none;stroke:#000000;stroke-linecap:square;stroke-linejoin:miter;stroke-width:0.8;"/>
   </g>
   <g id="text_15">
    <!-- Friction force as a function of velocity -->
    <defs>
     <path d="M 34.28125 27.484375 
Q 23.390625 27.484375 19.1875 25 
Q 14.984375 22.515625 14.984375 16.5 
Q 14.984375 11.71875 18.140625 8.90625 
Q 21.296875 6.109375 26.703125 6.109375 
Q 34.1875 6.109375 38.703125 11.40625 
Q 43.21875 16.703125 43.21875 25.484375 
L 43.21875 27.484375 
z
M 52.203125 31.203125 
L 52.203125 0 
L 43.21875 0 
L 43.21875 8.296875 
Q 40.140625 3.328125 35.546875 0.953125 
Q 30.953125 -1.421875 24.3125 -1.421875 
Q 15.921875 -1.421875 10.953125 3.296875 
Q 6 8.015625 6 15.921875 
Q 6 25.140625 12.171875 29.828125 
Q 18.359375 34.515625 30.609375 34.515625 
L 43.21875 34.515625 
L 43.21875 35.40625 
Q 43.21875 41.609375 39.140625 45 
Q 35.0625 48.390625 27.6875 48.390625 
Q 23 48.390625 18.546875 47.265625 
Q 14.109375 46.140625 10.015625 43.890625 
L 10.015625 52.203125 
Q 14.9375 54.109375 19.578125 55.046875 
Q 24.21875 56 28.609375 56 
Q 40.484375 56 46.34375 49.84375 
Q 52.203125 43.703125 52.203125 31.203125 
z
" id="DejaVuSans-61"/>
     <path d="M 44.28125 53.078125 
L 44.28125 44.578125 
Q 40.484375 46.53125 36.375 47.5 
Q 32.28125 48.484375 27.875 48.484375 
Q 21.1875 48.484375 17.84375 46.4375 
Q 14.5 44.390625 14.5 40.28125 
Q 14.5 37.15625 16.890625 35.375 
Q 19.28125 33.59375 26.515625 31.984375 
L 29.59375 31.296875 
Q 39.15625 29.25 43.1875 25.515625 
Q 47.21875 21.78125 47.21875 15.09375 
Q 47.21875 7.46875 41.1875 3.015625 
Q 35.15625 -1.421875 24.609375 -1.421875 
Q 20.21875 -1.421875 15.453125 -0.5625 
Q 10.6875 0.296875 5.421875 2 
L 5.421875 11.28125 
Q 10.40625 8.6875 15.234375 7.390625 
Q 20.0625 6.109375 24.8125 6.109375 
Q 31.15625 6.109375 34.5625 8.28125 
Q 37.984375 10.453125 37.984375 14.40625 
Q 37.984375 18.0625 35.515625 20.015625 
Q 33.0625 21.96875 24.703125 23.78125 
L 21.578125 24.515625 
Q 13.234375 26.265625 9.515625 29.90625 
Q 5.8125 33.546875 5.8125 39.890625 
Q 5.8125 47.609375 11.28125 51.796875 
Q 16.75 56 26.8125 56 
Q 31.78125 56 36.171875 55.265625 
Q 40.578125 54.546875 44.28125 53.078125 
z
" id="DejaVuSans-73"/>
     <path d="M 8.5 21.578125 
L 8.5 54.6875 
L 17.484375 54.6875 
L 17.484375 21.921875 
Q 17.484375 14.15625 20.5 10.265625 
Q 23.53125 6.390625 29.59375 6.390625 
Q 36.859375 6.390625 41.078125 11.03125 
Q 45.3125 15.671875 45.3125 23.6875 
L 45.3125 54.6875 
L 54.296875 54.6875 
L 54.296875 0 
L 45.3125 0 
L 45.3125 8.40625 
Q 42.046875 3.421875 37.71875 1 
Q 33.40625 -1.421875 27.6875 -1.421875 
Q 18.265625 -1.421875 13.375 4.4375 
Q 8.5 10.296875 8.5 21.578125 
z
M 31.109375 56 
z
" id="DejaVuSans-75"/>
     <path d="M 2.984375 54.6875 
L 12.5 54.6875 
L 29.59375 8.796875 
L 46.6875 54.6875 
L 56.203125 54.6875 
L 35.6875 0 
L 23.484375 0 
z
" id="DejaVuSans-76"/>
    </defs>
    <g transform="translate(122.8875 35.472)scale(0.12 -0.12)">
     <use xlink:href="#DejaVuSans-46"/>
     <use x="57.410156" xlink:href="#DejaVuSans-72"/>
     <use x="98.523438" xlink:href="#DejaVuSans-69"/>
     <use x="126.306641" xlink:href="#DejaVuSans-63"/>
     <use x="181.287109" xlink:href="#DejaVuSans-74"/>
     <use x="220.496094" xlink:href="#DejaVuSans-69"/>
     <use x="248.279297" xlink:href="#DejaVuSans-6f"/>
     <use x="309.460938" xlink:href="#DejaVuSans-6e"/>
     <use x="372.839844" xlink:href="#DejaVuSans-20"/>
     <use x="404.626953" xlink:href="#DejaVuSans-66"/>
     <use x="439.832031" xlink:href="#DejaVuSans-6f"/>
     <use x="501.013672" xlink:href="#DejaVuSans-72"/>
     <use x="542.095703" xlink:href="#DejaVuSans-63"/>
     <use x="597.076172" xlink:href="#DejaVuSans-65"/>
     <use x="658.599609" xlink:href="#DejaVuSans-20"/>
     <use x="690.386719" xlink:href="#DejaVuSans-61"/>
     <use x="751.666016" xlink:href="#DejaVuSans-73"/>
     <use x="803.765625" xlink:href="#DejaVuSans-20"/>
     <use x="835.552734" xlink:href="#DejaVuSans-61"/>
     <use x="896.832031" xlink:href="#DejaVuSans-20"/>
     <use x="928.619141" xlink:href="#DejaVuSans-66"/>
     <use x="963.824219" xlink:href="#DejaVuSans-75"/>
     <use x="1027.203125" xlink:href="#DejaVuSans-6e"/>
     <use x="1090.582031" xlink:href="#DejaVuSans-63"/>
     <use x="1145.5625" xlink:href="#DejaVuSans-74"/>
     <use x="1184.771484" xlink:href="#DejaVuSans-69"/>
     <use x="1212.554688" xlink:href="#DejaVuSans-6f"/>
     <use x="1273.736328" xlink:href="#DejaVuSans-6e"/>
     <use x="1337.115234" xlink:href="#DejaVuSans-20"/>
     <use x="1368.902344" xlink:href="#DejaVuSans-6f"/>
     <use x="1430.083984" xlink:href="#DejaVuSans-66"/>
     <use x="1465.289062" xlink:href="#DejaVuSans-20"/>
     <use x="1497.076172" xlink:href="#DejaVuSans-76"/>
     <use x="1556.255859" xlink:href="#DejaVuSans-65"/>
     <use x="1617.779297" xlink:href="#DejaVuSans-6c"/>
     <use x="1645.5625" xlink:href="#DejaVuSans-6f"/>
     <use x="1706.744141" xlink:href="#DejaVuSans-63"/>
     <use x="1761.724609" xlink:href="#DejaVuSans-69"/>
     <use x="1789.507812" xlink:href="#DejaVuSans-74"/>
     <use x="1828.716797" xlink:href="#DejaVuSans-79"/>
    </g>
   </g>
   <g id="legend_1">
    <g id="patch_7">
     <path d="M 309.62 302.584 
L 407.72 302.584 
Q 409.72 302.584 409.72 300.584 
L 409.72 242.8715 
Q 409.72 240.8715 407.72 240.8715 
L 309.62 240.8715 
Q 307.62 240.8715 307.62 242.8715 
L 307.62 300.584 
Q 307.62 302.584 309.62 302.584 
z
" style="fill:#ffffff;opacity:0.8;stroke:#cccccc;stroke-linejoin:miter;"/>
    </g>
    <g id="line2d_29"/>
    <g id="line2d_30">
     <g>
      <use style="fill:#008000;stroke:#008000;" x="321.62" xlink:href="#mcf3d12abbc" y="248.969937"/>
     </g>
    </g>
    <g id="text_16">
     <!-- x-component -->
     <defs>
      <path d="M 54.890625 54.6875 
L 35.109375 28.078125 
L 55.90625 0 
L 45.3125 0 
L 29.390625 21.484375 
L 13.484375 0 
L 2.875 0 
L 24.125 28.609375 
L 4.6875 54.6875 
L 15.28125 54.6875 
L 29.78125 35.203125 
L 44.28125 54.6875 
z
" id="DejaVuSans-78"/>
      <path d="M 4.890625 31.390625 
L 31.203125 31.390625 
L 31.203125 23.390625 
L 4.890625 23.390625 
z
" id="DejaVuSans-2d"/>
      <path d="M 52 44.1875 
Q 55.375 50.25 60.0625 53.125 
Q 64.75 56 71.09375 56 
Q 79.640625 56 84.28125 50.015625 
Q 88.921875 44.046875 88.921875 33.015625 
L 88.921875 0 
L 79.890625 0 
L 79.890625 32.71875 
Q 79.890625 40.578125 77.09375 44.375 
Q 74.3125 48.1875 68.609375 48.1875 
Q 61.625 48.1875 57.5625 43.546875 
Q 53.515625 38.921875 53.515625 30.90625 
L 53.515625 0 
L 44.484375 0 
L 44.484375 32.71875 
Q 44.484375 40.625 41.703125 44.40625 
Q 38.921875 48.1875 33.109375 48.1875 
Q 26.21875 48.1875 22.15625 43.53125 
Q 18.109375 38.875 18.109375 30.90625 
L 18.109375 0 
L 9.078125 0 
L 9.078125 54.6875 
L 18.109375 54.6875 
L 18.109375 46.1875 
Q 21.1875 51.21875 25.484375 53.609375 
Q 29.78125 56 35.6875 56 
Q 41.65625 56 45.828125 52.96875 
Q 50 49.953125 52 44.1875 
z
" id="DejaVuSans-6d"/>
      <path d="M 18.109375 8.203125 
L 18.109375 -20.796875 
L 9.078125 -20.796875 
L 9.078125 54.6875 
L 18.109375 54.6875 
L 18.109375 46.390625 
Q 20.953125 51.265625 25.265625 53.625 
Q 29.59375 56 35.59375 56 
Q 45.5625 56 51.78125 48.09375 
Q 58.015625 40.1875 58.015625 27.296875 
Q 58.015625 14.40625 51.78125 6.484375 
Q 45.5625 -1.421875 35.59375 -1.421875 
Q 29.59375 -1.421875 25.265625 0.953125 
Q 20.953125 3.328125 18.109375 8.203125 
z
M 48.6875 27.296875 
Q 48.6875 37.203125 44.609375 42.84375 
Q 40.53125 48.484375 33.40625 48.484375 
Q 26.265625 48.484375 22.1875 42.84375 
Q 18.109375 37.203125 18.109375 27.296875 
Q 18.109375 17.390625 22.1875 11.75 
Q 26.265625 6.109375 33.40625 6.109375 
Q 40.53125 6.109375 44.609375 11.75 
Q 48.6875 17.390625 48.6875 27.296875 
z
" id="DejaVuSans-70"/>
     </defs>
     <g transform="translate(339.62 252.469937)scale(0.1 -0.1)">
      <use xlink:href="#DejaVuSans-78"/>
      <use x="59.179688" xlink:href="#DejaVuSans-2d"/>
      <use x="95.263672" xlink:href="#DejaVuSans-63"/>
      <use x="150.244141" xlink:href="#DejaVuSans-6f"/>
      <use x="211.425781" xlink:href="#DejaVuSans-6d"/>
      <use x="308.837891" xlink:href="#DejaVuSans-70"/>
      <use x="372.314453" xlink:href="#DejaVuSans-6f"/>
      <use x="433.496094" xlink:href="#DejaVuSans-6e"/>
      <use x="496.875" xlink:href="#DejaVuSans-65"/>
      <use x="558.398438" xlink:href="#DejaVuSans-6e"/>
      <use x="621.777344" xlink:href="#DejaVuSans-74"/>
     </g>
    </g>
    <g id="line2d_31"/>
    <g id="line2d_32">
     <g>
      <use style="fill:#ff0000;stroke:#ff0000;" x="321.62" xlink:href="#m0917052d37" y="263.648062"/>
     </g>
    </g>
    <g id="text_17">
     <!-- y-component -->
     <g transform="translate(339.62 267.148062)scale(0.1 -0.1)">
      <use xlink:href="#DejaVuSans-79"/>
      <use x="59.164062" xlink:href="#DejaVuSans-2d"/>
      <use x="95.248047" xlink:href="#DejaVuSans-63"/>
      <use x="150.228516" xlink:href="#DejaVuSans-6f"/>
      <use x="211.410156" xlink:href="#DejaVuSans-6d"/>
      <use x="308.822266" xlink:href="#DejaVuSans-70"/>
      <use x="372.298828" xlink:href="#DejaVuSans-6f"/>
      <use x="433.480469" xlink:href="#DejaVuSans-6e"/>
      <use x="496.859375" xlink:href="#DejaVuSans-65"/>
      <use x="558.382812" xlink:href="#DejaVuSans-6e"/>
      <use x="621.761719" xlink:href="#DejaVuSans-74"/>
     </g>
    </g>
    <g id="line2d_33">
     <path d="M 311.62 278.326187 
L 331.62 278.326187 
" style="fill:none;stroke:#000000;stroke-linecap:square;stroke-width:1.5;"/>
    </g>
    <g id="line2d_34"/>
    <g id="text_18">
     <!-- linear fit(x) -->
     <defs>
      <path d="M 31 75.875 
Q 24.46875 64.65625 21.28125 53.65625 
Q 18.109375 42.671875 18.109375 31.390625 
Q 18.109375 20.125 21.3125 9.0625 
Q 24.515625 -2 31 -13.1875 
L 23.1875 -13.1875 
Q 15.875 -1.703125 12.234375 9.375 
Q 8.59375 20.453125 8.59375 31.390625 
Q 8.59375 42.28125 12.203125 53.3125 
Q 15.828125 64.359375 23.1875 75.875 
z
" id="DejaVuSans-28"/>
      <path d="M 8.015625 75.875 
L 15.828125 75.875 
Q 23.140625 64.359375 26.78125 53.3125 
Q 30.421875 42.28125 30.421875 31.390625 
Q 30.421875 20.453125 26.78125 9.375 
Q 23.140625 -1.703125 15.828125 -13.1875 
L 8.015625 -13.1875 
Q 14.5 -2 17.703125 9.0625 
Q 20.90625 20.125 20.90625 31.390625 
Q 20.90625 42.671875 17.703125 53.65625 
Q 14.5 64.65625 8.015625 75.875 
z
" id="DejaVuSans-29"/>
     </defs>
     <g transform="translate(339.62 281.826187)scale(0.1 -0.1)">
      <use xlink:href="#DejaVuSans-6c"/>
      <use x="27.783203" xlink:href="#DejaVuSans-69"/>
      <use x="55.566406" xlink:href="#DejaVuSans-6e"/>
      <use x="118.945312" xlink:href="#DejaVuSans-65"/>
      <use x="180.46875" xlink:href="#DejaVuSans-61"/>
      <use x="241.748047" xlink:href="#DejaVuSans-72"/>
      <use x="282.861328" xlink:href="#DejaVuSans-20"/>
      <use x="314.648438" xlink:href="#DejaVuSans-66"/>
      <use x="349.853516" xlink:href="#DejaVuSans-69"/>
      <use x="377.636719" xlink:href="#DejaVuSans-74"/>
      <use x="416.845703" xlink:href="#DejaVuSans-28"/>
      <use x="455.859375" xlink:href="#DejaVuSans-78"/>
      <use x="515.039062" xlink:href="#DejaVuSans-29"/>
     </g>
    </g>
    <g id="line2d_35">
     <path d="M 311.62 293.004312 
L 331.62 293.004312 
" style="fill:none;stroke:#0000ff;stroke-linecap:square;stroke-width:1.5;"/>
    </g>
    <g id="line2d_36"/>
    <g id="text_19">
     <!-- linear fit(y) -->
     <g transform="translate(339.62 296.504312)scale(0.1 -0.1)">
      <use xlink:href="#DejaVuSans-6c"/>
      <use x="27.783203" xlink:href="#DejaVuSans-69"/>
      <use x="55.566406" xlink:href="#DejaVuSans-6e"/>
      <use x="118.945312" xlink:href="#DejaVuSans-65"/>
      <use x="180.46875" xlink:href="#DejaVuSans-61"/>
      <use x="241.748047" xlink:href="#DejaVuSans-72"/>
      <use x="282.861328" xlink:href="#DejaVuSans-20"/>
      <use x="314.648438" xlink:href="#DejaVuSans-66"/>
      <use x="349.853516" xlink:href="#DejaVuSans-69"/>
      <use x="377.636719" xlink:href="#DejaVuSans-74"/>
      <use x="416.845703" xlink:href="#DejaVuSans-28"/>
      <use x="455.859375" xlink:href="#DejaVuSans-79"/>
      <use x="515.039062" xlink:href="#DejaVuSans-29"/>
     </g>
    </g>
   </g>
  </g>
 </g>
 <defs>
  <clipPath id="p81a8d4cd5a">
   <rect height="266.112" width="357.12" x="57.6" y="41.472"/>
  </clipPath>
 </defs>
</svg>
